<svg width="352" height="61" viewBox="0 0 352 61" fill="none" xmlns="http://www.w3.org/2000/svg">
<path d="M71.9785 52.2196C71.0558 52.5056 70.1383 52.5491 69.2258 52.3503C68.3134 52.1515 67.5009 51.705 66.7881 51.0108C66.0754 50.3167 65.542 49.3984 65.188 48.256L65.0995 47.9704C64.7454 46.828 64.6684 45.7764 64.8682 44.8155C65.0635 43.84 65.4739 43.0145 66.0994 42.3391C66.7349 41.6445 67.5214 41.152 68.4587 40.8615C69.2057 40.63 69.8672 40.5374 70.4434 40.5836C71.0297 40.6106 71.5316 40.7279 71.9491 40.9357C72.3621 41.1287 72.7087 41.3665 72.9888 41.6489L73.2964 41.5536L71.3356 35.2264L73.0712 34.6886L77.8369 50.0671L76.1453 50.5913L75.5938 48.8118L75.2862 48.9071C75.1612 49.5398 74.857 50.1638 74.3735 50.7792C73.8899 51.3945 73.0916 51.8747 71.9785 52.2196ZM71.9633 50.5388C73.0764 50.1939 73.8682 49.5632 74.3387 48.6469C74.8194 47.7114 74.8622 46.6065 74.4674 45.3323L74.4061 45.1345C74.0112 43.8603 73.3533 42.9806 72.4325 42.4955C71.5217 41.9911 70.5098 41.9114 69.3966 42.2564C68.2982 42.5968 67.5013 43.237 67.0061 44.1771C66.5209 45.098 66.4758 46.1955 66.8706 47.4697L66.9319 47.6675C67.3268 48.9417 67.9869 49.8287 68.9123 50.3285C69.8479 50.8091 70.8648 50.8792 71.9633 50.5388ZM81.474 48.9399L78.1448 38.197L79.8365 37.6727L80.245 38.9909L80.5525 38.8956C80.5977 38.3679 80.7839 37.9329 81.1113 37.5907C81.4387 37.2485 81.9246 36.9775 82.569 36.7778L83.8432 36.3829L84.3334 37.9647L82.9493 38.3936C82.1731 38.6342 81.6114 39.049 81.2642 39.6382C80.9272 40.2082 80.8994 40.9472 81.1808 41.8552L83.2096 48.4021L81.474 48.9399ZM94.4296 45.2622C93.3458 45.5981 92.3161 45.6683 91.3406 45.473C90.3797 45.2732 89.5378 44.8358 88.815 44.1608C88.1022 43.4667 87.5711 42.5557 87.2216 41.428L87.1331 41.1424C86.7882 40.0293 86.7134 38.9849 86.9087 38.0094C87.1187 37.0293 87.5634 36.1852 88.2429 35.477C88.937 34.7643 89.826 34.2399 90.9098 33.9041C91.9936 33.5682 93.016 33.5002 93.9768 33.7001C94.9524 33.8954 95.7965 34.3401 96.5093 35.0343C97.2366 35.7238 97.7728 36.6252 98.1178 37.7383L98.2063 38.0239C98.5557 39.1517 98.6255 40.2056 98.4155 41.1857C98.2157 42.1465 97.7687 42.9834 97.0745 43.6961C96.3951 44.4043 95.5134 44.9263 94.4296 45.2622ZM93.9462 43.7024C95.0886 43.3484 95.8855 42.7081 96.3368 41.7817C96.7982 40.8361 96.8383 39.7481 96.4571 38.5178L96.3958 38.3201C96.0145 37.0898 95.3685 36.2225 94.4578 35.7182C93.5571 35.1946 92.5356 35.1099 91.3932 35.4639C90.2654 35.8134 89.4708 36.4609 89.0094 37.4066C88.5434 38.3376 88.501 39.4182 88.8823 40.6485L88.9436 40.8462C89.3248 42.0765 89.9731 42.9511 90.8884 43.4701C91.7992 43.9744 92.8185 44.0519 93.9462 43.7024ZM104.311 46.6786L99.6207 31.5418L101.312 31.0175L101.864 32.797L102.171 32.7017C102.282 32.0736 102.579 31.4518 103.062 30.8365C103.56 30.2165 104.366 29.7341 105.479 29.3892C106.402 29.1032 107.314 29.0693 108.217 29.2873C109.129 29.4861 109.939 29.9253 110.647 30.6048C111.37 31.2797 111.911 32.1957 112.27 33.3528L112.358 33.6384C112.712 34.7808 112.791 35.8397 112.596 36.8153C112.401 37.7908 111.983 38.6185 111.343 39.2985C110.718 39.9739 109.936 40.4568 108.999 40.7473C108.252 40.9788 107.583 41.0737 106.992 41.032C106.421 41.0005 105.926 40.8809 105.508 40.6731C105.091 40.4654 104.744 40.2277 104.469 39.9599L104.161 40.0553L106.047 46.1407L104.311 46.6786ZM108.061 39.3524C109.174 39.0075 109.966 38.3768 110.436 37.4605C110.917 36.525 110.96 35.4201 110.565 34.1459L110.504 33.9482C110.109 32.6739 109.451 31.7943 108.53 31.3091C107.619 30.8048 106.607 30.7251 105.494 31.07C104.396 31.4104 103.599 32.0506 103.104 32.9907C102.618 33.9116 102.573 35.0091 102.968 36.2833L103.029 36.4811C103.424 37.7553 104.085 38.6423 105.01 39.1421C105.945 39.6227 106.962 39.6928 108.061 39.3524ZM122.731 36.1548L117.965 20.7763L119.701 20.2384L121.668 26.5875L121.976 26.4922C122.022 26.1246 122.149 25.7563 122.356 25.3872C122.573 24.999 122.886 24.6371 123.295 24.3014C123.72 23.9612 124.298 23.6777 125.03 23.4508C125.836 23.2011 126.608 23.1545 127.347 23.3108C128.096 23.448 128.763 23.7871 129.348 24.3282C129.928 24.8546 130.368 25.6011 130.668 26.5678L132.683 33.0707L130.947 33.6085L128.973 27.2374C128.642 26.1683 128.13 25.476 127.438 25.1606C126.761 24.8407 125.969 24.8214 125.061 25.1028C124.021 25.425 123.276 26.0252 122.825 26.9031C122.39 27.7766 122.379 28.8797 122.792 30.2125L124.466 35.6169L122.731 36.1548ZM141.221 30.762C140.137 31.0979 139.114 31.1659 138.153 30.966C137.188 30.7515 136.349 30.2972 135.636 29.6031C134.924 28.9089 134.397 28.0126 134.057 26.9142L133.975 26.6505C133.63 25.5374 133.555 24.4931 133.75 23.5176C133.946 22.542 134.376 21.7024 135.041 20.9988C135.701 20.2805 136.551 19.7602 137.591 19.4379C138.601 19.1248 139.563 19.0676 140.475 19.2664C141.383 19.4506 142.182 19.8774 142.871 20.5468C143.56 21.2161 144.072 22.0927 144.408 23.1766L144.653 23.9675L135.887 26.6839C136.29 27.8273 136.945 28.6197 137.852 29.0609C138.755 29.4874 139.733 29.5373 140.788 29.2106C141.711 28.9246 142.355 28.4921 142.722 27.9131C143.088 27.334 143.312 26.7107 143.394 26.0431L145.113 26.3052C145.034 26.8273 144.867 27.3766 144.612 27.9532C144.372 28.5253 143.985 29.0626 143.45 29.5654C142.93 30.0636 142.187 30.4625 141.221 30.762ZM135.467 25.2491L142.453 23.0841C142.086 22.1063 141.501 21.4367 140.699 21.0753C139.911 20.7094 139.034 20.6762 138.067 20.9758C137.086 21.2799 136.367 21.8078 135.91 22.5595C135.452 23.3112 135.305 24.2078 135.467 25.2491ZM149.205 27.9504L145.876 17.2075L147.568 16.6832L147.976 18.0014L148.284 17.9061C148.329 17.3784 148.515 16.9434 148.843 16.6012C149.17 16.259 149.656 15.988 150.3 15.7883L151.575 15.3934L152.065 16.9752L150.681 17.4041C149.905 17.6447 149.343 18.0595 148.996 18.6487C148.659 19.2187 148.631 19.9577 148.912 20.8658L150.941 27.4126L149.205 27.9504ZM162.117 24.2863C161.033 24.6222 160.011 24.6902 159.05 24.4903C158.085 24.2758 157.246 23.8215 156.533 23.1274C155.82 22.4332 155.293 21.5369 154.953 20.4385L154.871 20.1748C154.526 19.0617 154.452 18.0174 154.647 17.0419C154.842 16.0663 155.272 15.2267 155.937 14.5231C156.598 13.8048 157.448 13.2845 158.487 12.9622C159.498 12.6491 160.46 12.5919 161.372 12.7907C162.28 12.9749 163.078 13.4017 163.767 14.0711C164.456 14.7405 164.969 15.6171 165.305 16.7009L165.55 17.4918L156.784 20.2082C157.186 21.3516 157.841 22.144 158.749 22.5852C159.651 23.0118 160.63 23.0616 161.684 22.7349C162.607 22.4489 163.252 22.0164 163.618 21.4374C163.984 20.8583 164.209 20.235 164.291 19.5675L166.009 19.8295C165.93 20.3516 165.763 20.9009 165.509 21.4775C165.269 22.0496 164.881 22.587 164.347 23.0897C163.827 23.5879 163.084 23.9868 162.117 24.2863ZM156.363 18.7734L163.35 16.6084C162.982 15.6306 162.398 14.961 161.595 14.5996C160.808 14.2337 159.931 14.2005 158.964 14.5001C157.983 14.8042 157.263 15.3321 156.806 16.0838C156.349 16.8355 156.201 17.7321 156.363 18.7734Z" fill="white"/>
<path d="M233.354 28.318C232.244 28.0791 231.313 27.6353 230.558 26.9866C229.819 26.3411 229.3 25.547 229.001 24.6043C228.72 23.6498 228.704 22.5955 228.953 21.4413L229.016 21.149C229.261 20.0098 229.708 19.063 230.357 18.3087C231.02 17.5576 231.822 17.0401 232.762 16.7561C233.716 16.4755 234.748 16.4546 235.857 16.6935C236.966 16.9324 237.891 17.3745 238.63 18.02C239.384 18.6687 239.902 19.4703 240.182 20.4247C240.478 21.3824 240.503 22.4309 240.258 23.5701L240.195 23.8624C239.946 25.0166 239.49 25.9693 238.827 26.7204C238.181 27.4597 237.381 27.9698 236.427 28.2504C235.487 28.5343 234.463 28.5568 233.354 28.318ZM233.697 26.7216C234.867 26.9733 235.875 26.8062 236.723 26.2203C237.589 25.6225 238.157 24.694 238.428 23.4349L238.472 23.2326C238.743 21.9734 238.606 20.9008 238.059 20.0145C237.531 19.1166 236.682 18.5417 235.513 18.2899C234.359 18.0413 233.349 18.2159 232.483 18.8136C231.62 19.3964 231.053 20.3174 230.782 21.5765L230.739 21.7789C230.468 23.038 230.604 24.1182 231.147 25.0194C231.693 25.9056 232.543 26.473 233.697 26.7216ZM242.239 29.9021L244.607 18.9072L246.338 19.2801L246.048 20.6291L246.362 20.6969C246.661 20.2592 247.036 19.9715 247.489 19.8338C247.943 19.6962 248.499 19.6983 249.158 19.8404L250.463 20.1212L250.114 21.7401L248.697 21.4351C247.903 21.264 247.21 21.35 246.618 21.6932C246.045 22.0246 245.658 22.6549 245.458 23.5843L244.015 30.2847L242.239 29.9021ZM256.489 32.9711L259.879 17.232L261.655 17.6145L260.256 24.1125L260.571 24.1803C260.792 23.8828 261.083 23.624 261.444 23.4037C261.823 23.1717 262.274 23.0099 262.795 22.9184C263.332 22.83 263.975 22.8666 264.724 23.028C265.549 23.2055 266.245 23.5436 266.812 24.0421C267.397 24.529 267.812 25.1516 268.056 25.9101C268.304 26.6535 268.321 27.5199 268.108 28.5092L266.675 35.1647L264.899 34.7821L266.303 28.2616C266.539 27.1674 266.432 26.3132 265.984 25.6991C265.551 25.0882 264.87 24.6827 263.941 24.4826C262.876 24.2534 261.933 24.4109 261.11 24.9551C260.302 25.5026 259.751 26.4584 259.457 27.8225L258.266 33.3536L256.489 32.9711ZM275.248 37.3402C274.138 37.1013 273.214 36.6592 272.475 36.0137C271.739 35.3533 271.23 34.5458 270.949 33.5913C270.669 32.6368 270.65 31.5975 270.892 30.4733L270.95 30.2034C271.195 29.0642 271.642 28.1175 272.291 27.3631C272.939 26.6088 273.726 26.088 274.651 25.8009C275.578 25.4988 276.574 25.4623 277.639 25.6915C278.673 25.9143 279.539 26.336 280.236 26.9568C280.937 27.5626 281.424 28.3262 281.696 29.2474C281.968 30.1687 281.985 31.184 281.746 32.2932L281.571 33.1026L272.6 31.1706C272.39 32.3644 272.572 33.3761 273.146 34.2056C273.724 35.0201 274.552 35.5436 275.631 35.776C276.576 35.9794 277.35 35.9186 277.953 35.5937C278.556 35.2687 279.057 34.8355 279.456 34.294L280.825 35.3653C280.5 35.7815 280.086 36.1784 279.581 36.5559C279.091 36.9367 278.49 37.2151 277.778 37.391C277.08 37.5702 276.237 37.5533 275.248 37.3402ZM272.937 29.7139L280.087 31.2538C280.247 30.2216 280.066 29.3512 279.544 28.6428C279.037 27.9376 278.289 27.4785 277.3 27.2655C276.295 27.0492 275.41 27.1564 274.642 27.5872C273.875 28.018 273.307 28.7269 272.937 29.7139ZM283.585 38.8064L285.953 27.8115L287.684 28.1844L287.394 29.5334L287.708 29.6012C288.007 29.1635 288.382 28.8758 288.835 28.7381C289.289 28.6005 289.845 28.6026 290.504 28.7447L291.809 29.0255L291.46 30.6444L290.043 30.3393C289.249 30.1683 288.556 30.2543 287.964 30.5974C287.391 30.9288 287.004 31.5592 286.804 32.4886L285.361 39.189L283.585 38.8064ZM296.634 41.9461C295.525 41.7072 294.601 41.265 293.861 40.6195C293.125 39.9591 292.617 39.1516 292.336 38.1972C292.055 37.2427 292.036 36.2033 292.278 35.0791L292.336 34.8093C292.582 33.6701 293.029 32.7233 293.677 31.9689C294.326 31.2146 295.113 30.6939 296.037 30.4067C296.965 30.1046 297.961 30.0682 299.025 30.2974C300.059 30.5201 300.925 30.9419 301.623 31.5627C302.324 32.1685 302.81 32.932 303.082 33.8533C303.355 34.7745 303.371 35.7898 303.132 36.899L302.958 37.7085L293.987 35.7764C293.777 36.9703 293.959 37.982 294.533 38.8114C295.11 39.6259 295.939 40.1494 297.018 40.3818C297.962 40.5852 298.736 40.5244 299.339 40.1995C299.943 39.8745 300.444 39.4413 300.843 38.8999L302.212 39.9711C301.887 40.3874 301.472 40.7843 300.967 41.1618C300.478 41.5425 299.877 41.8209 299.164 41.9969C298.467 42.1761 297.623 42.1591 296.634 41.9461ZM294.324 34.3198L301.474 35.8596C301.634 34.8274 301.452 33.9571 300.931 33.2487C300.424 32.5435 299.676 32.0843 298.686 31.8713C297.682 31.655 296.796 31.7622 296.029 32.193C295.262 32.6238 294.693 33.3327 294.324 34.3198Z" fill="white"/>
<path d="M88 24.2237C82.1097 23.3268 75.4112 22.103 69.3947 22.0091C62.0451 21.8944 54.7884 22.8731 47.6977 24.4828C41.3343 25.9274 31.7375 28.9592 25.6997 31.5035C21.9905 33.0665 18.3008 35.0329 15.4394 37.6524C12.2634 40.5601 9.80338 44.6663 7.61429 48.1598C6.7712 49.5053 6.29588 50.5563 6 52" stroke="white" stroke-width="2" stroke-linecap="round"/>
<path d="M16 51.0035C13.0148 52.9998 9.04905 56.313 5.08602 56.9694C3.78892 57.1842 3.46126 56.2248 3.12366 55.4334C2.22944 53.3372 1.71691 51.1424 1 49" stroke="white" stroke-width="2" stroke-linecap="round"/>
<path d="M284.135 15.8055C288.259 15.4567 291.372 15.0811 295.54 15.1966C302.358 15.3854 309.109 16.5913 315.656 18.4635C323.623 20.7417 331.693 23.9795 338.794 28.3111C339.906 28.9892 341.101 29.8423 341.956 30.852C342.114 31.0388 342.105 31.0904 342.307 31.1916" stroke="white" stroke-width="2" stroke-linecap="round"/>
<path d="M332.189 34.5639C335.968 35.7533 338.992 38.182 343.103 38.6856C346.161 39.0604 349.778 38.8778 350.362 35.1494C350.709 32.9399 349.639 30.7214 349.051 28.6624" stroke="white" stroke-width="2" stroke-linecap="round"/>
</svg>
